<svg width="16" height="14" viewBox="0 0 16 14" fill="none" xmlns="http://www.w3.org/2000/svg">
<path d="M7.5275 4.47C7.8175 4.76 7.8175 5.24 7.5275 5.53C7.2375 5.82 6.7575 5.82 6.4675 5.53L4.7475 3.81V12C4.7475 12.41 4.4075 12.75 3.9975 12.75C3.5875 12.75 3.2475 12.41 3.2475 12V3.81L1.5275 5.53C1.2375 5.82 0.7575 5.82 0.4675 5.53C0.1775 5.24 0.1775 4.76 0.4675 4.47L3.9975 0.940002L7.5275 4.47ZM15.5275 8.47C15.2375 8.18 14.7575 8.18 14.4675 8.47L12.7475 10.19V2C12.7475 1.59 12.4075 1.25 11.9975 1.25C11.5875 1.25 11.2475 1.59 11.2475 2V10.19L9.5275 8.47C9.2375 8.18 8.7575 8.18 8.4675 8.47C8.1775 8.76 8.1775 9.24 8.4675 9.53L11.9975 13.06L15.5275 9.53C15.8175 9.24 15.8175 8.76 15.5275 8.47Z" fill="#2B2E36"/>
</svg>
